<svg width="94" height="10" viewBox="0 0 94 10" fill="none" xmlns="http://www.w3.org/2000/svg">
<path opacity="0.3" d="M38 5C38 7.76142 35.7614 10 33 10C30.2386 10 28 7.76142 28 5C28 2.23858 30.2386 0 33 0C35.7614 0 38 2.23858 38 5Z" fill="#5B9BF3"/>
<path opacity="0.3" d="M66 5C66 7.76142 63.7614 10 61 10C58.2386 10 56 7.76142 56 5C56 2.23858 58.2386 0 61 0C63.7614 0 66 2.23858 66 5Z" fill="#5B9BF3"/>
<path opacity="0.3" d="M94 5C94 7.76142 91.7614 10 89 10C86.2386 10 84 7.76142 84 5C84 2.23858 86.2386 0 89 0C91.7614 0 94 2.23858 94 5Z" fill="#5B9BF3"/>
<path d="M10 5C10 7.76142 7.76142 10 5 10C2.23858 10 0 7.76142 0 5C0 2.23858 2.23858 0 5 0C7.76142 0 10 2.23858 10 5Z" fill="#5B9BF3"/>
</svg>
