<svg width="159" height="41" viewBox="0 0 159 41" fill="none" xmlns="http://www.w3.org/2000/svg">
<path d="M58.856 15.4559H53.288V12.9119H67.568V15.4559H61.976V29.9999H58.856V15.4559Z" fill="white"/>
<path d="M74.1209 17.5919C74.5849 17.5919 74.9849 17.6559 75.3209 17.7839L75.2969 20.5199C74.7849 20.3119 74.2569 20.2079 73.7129 20.2079C72.6889 20.2079 71.9049 20.5039 71.3609 21.0959C70.8329 21.6879 70.5689 22.4719 70.5689 23.4479V29.9999H67.5929V21.3119C67.5929 20.0319 67.5289 18.8879 67.4009 17.8799H70.2089L70.4489 20.0159C70.7529 19.2319 71.2329 18.6319 71.8889 18.2159C72.5449 17.7999 73.2889 17.5919 74.1209 17.5919Z" fill="white"/>
<path d="M88.349 17.8799V29.9999H85.397V28.0559C85.029 28.7279 84.501 29.2559 83.813 29.6399C83.125 30.0079 82.341 30.1919 81.461 30.1919C80.405 30.1919 79.469 29.9359 78.653 29.4239C77.837 28.9119 77.205 28.1839 76.757 27.2399C76.309 26.2959 76.085 25.1999 76.085 23.9519C76.085 22.7039 76.309 21.5999 76.757 20.6399C77.221 19.6639 77.861 18.9119 78.677 18.3839C79.493 17.8399 80.421 17.5679 81.461 17.5679C82.341 17.5679 83.125 17.7599 83.813 18.1439C84.501 18.5119 85.029 19.0319 85.397 19.7039V17.8799H88.349ZM82.277 27.8399C83.269 27.8399 84.037 27.4959 84.581 26.8079C85.125 26.1199 85.397 25.1519 85.397 23.9039C85.397 22.6239 85.125 21.6399 84.581 20.9519C84.037 20.2639 83.261 19.9199 82.253 19.9199C81.261 19.9199 80.485 20.2799 79.925 20.9999C79.381 21.7039 79.109 22.6879 79.109 23.9519C79.109 25.1999 79.381 26.1599 79.925 26.8319C80.485 27.5039 81.269 27.8399 82.277 27.8399Z" fill="white"/>
<path d="M97.3523 14.7119C96.0563 14.7119 95.4083 15.4239 95.4083 16.8479V17.8799H98.1203V20.1359H95.4083V29.9999H92.4083V20.1359H90.1043V17.8799H92.4083V16.7039C92.4083 15.2639 92.7683 14.1599 93.4883 13.3919C94.2243 12.6079 95.2723 12.2159 96.6323 12.2159C97.3843 12.2159 98.0163 12.3119 98.5283 12.5039V14.8799C98.0803 14.7679 97.6883 14.7119 97.3523 14.7119Z" fill="white"/>
<path d="M111.904 17.8799V29.9999H108.952V28.0559C108.584 28.7279 108.056 29.2559 107.368 29.6399C106.68 30.0079 105.896 30.1919 105.016 30.1919C103.96 30.1919 103.024 29.9359 102.208 29.4239C101.392 28.9119 100.76 28.1839 100.312 27.2399C99.8637 26.2959 99.6397 25.1999 99.6397 23.9519C99.6397 22.7039 99.8637 21.5999 100.312 20.6399C100.776 19.6639 101.416 18.9119 102.232 18.3839C103.048 17.8399 103.976 17.5679 105.016 17.5679C105.896 17.5679 106.68 17.7599 107.368 18.1439C108.056 18.5119 108.584 19.0319 108.952 19.7039V17.8799H111.904ZM105.832 27.8399C106.824 27.8399 107.592 27.4959 108.136 26.8079C108.68 26.1199 108.952 25.1519 108.952 23.9039C108.952 22.6239 108.68 21.6399 108.136 20.9519C107.592 20.2639 106.816 19.9199 105.808 19.9199C104.816 19.9199 104.04 20.2799 103.48 20.9999C102.936 21.7039 102.664 22.6879 102.664 23.9519C102.664 25.1999 102.936 26.1599 103.48 26.8319C104.04 27.5039 104.824 27.8399 105.832 27.8399Z" fill="white"/>
<path d="M115.171 12.3359H118.147V29.9999H115.171V12.3359Z" fill="white"/>
<path d="M133.141 17.8799V29.6159C133.141 31.5039 132.621 32.9359 131.581 33.9119C130.541 34.8879 129.013 35.3759 126.997 35.3759C125.125 35.3759 123.477 34.9839 122.053 34.1999L122.533 31.9199C124.005 32.6879 125.469 33.0719 126.925 33.0719C129.085 33.0719 130.165 31.9999 130.165 29.8559V27.4559C129.797 28.1119 129.261 28.6479 128.557 29.0639C127.853 29.4639 127.061 29.6639 126.181 29.6639C125.125 29.6639 124.181 29.4159 123.349 28.9199C122.533 28.4079 121.893 27.6959 121.429 26.7839C120.981 25.8559 120.757 24.7999 120.757 23.6159C120.757 22.4319 120.981 21.3839 121.429 20.4719C121.893 19.5439 122.533 18.8319 123.349 18.3359C124.181 17.8239 125.125 17.5679 126.181 17.5679C127.077 17.5679 127.869 17.7599 128.557 18.1439C129.261 18.5119 129.797 19.0319 130.165 19.7039V17.8799H133.141ZM126.973 27.3119C127.965 27.3119 128.741 26.9839 129.301 26.3279C129.877 25.6719 130.165 24.7679 130.165 23.6159C130.165 22.4639 129.885 21.5599 129.325 20.9039C128.765 20.2479 127.981 19.9199 126.973 19.9199C125.981 19.9199 125.197 20.2479 124.621 20.9039C124.061 21.5599 123.781 22.4639 123.781 23.6159C123.781 24.7679 124.061 25.6719 124.621 26.3279C125.197 26.9839 125.981 27.3119 126.973 27.3119Z" fill="white"/>
<path d="M147.974 17.8799V29.9999H145.022V28.0559C144.654 28.7279 144.126 29.2559 143.438 29.6399C142.75 30.0079 141.966 30.1919 141.086 30.1919C140.03 30.1919 139.094 29.9359 138.278 29.4239C137.462 28.9119 136.83 28.1839 136.382 27.2399C135.934 26.2959 135.71 25.1999 135.71 23.9519C135.71 22.7039 135.934 21.5999 136.382 20.6399C136.846 19.6639 137.486 18.9119 138.302 18.3839C139.118 17.8399 140.046 17.5679 141.086 17.5679C141.966 17.5679 142.75 17.7599 143.438 18.1439C144.126 18.5119 144.654 19.0319 145.022 19.7039V17.8799H147.974ZM141.902 27.8399C142.894 27.8399 143.662 27.4959 144.206 26.8079C144.75 26.1199 145.022 25.1519 145.022 23.9039C145.022 22.6239 144.75 21.6399 144.206 20.9519C143.662 20.2639 142.886 19.9199 141.878 19.9199C140.886 19.9199 140.11 20.2799 139.55 20.9999C139.006 21.7039 138.734 22.6879 138.734 23.9519C138.734 25.1999 139.006 26.1599 139.55 26.8319C140.11 27.5039 140.894 27.8399 141.902 27.8399Z" fill="white"/>
<path d="M157.769 17.5919C158.233 17.5919 158.633 17.6559 158.969 17.7839L158.945 20.5199C158.433 20.3119 157.905 20.2079 157.361 20.2079C156.337 20.2079 155.553 20.5039 155.009 21.0959C154.481 21.6879 154.217 22.4719 154.217 23.4479V29.9999H151.241V21.3119C151.241 20.0319 151.177 18.8879 151.049 17.8799H153.857L154.097 20.0159C154.401 19.2319 154.881 18.6319 155.537 18.2159C156.193 17.7999 156.937 17.5919 157.769 17.5919Z" fill="white"/>
<path d="M41 20.5C41 31.8218 31.8218 41 20.5 41C9.17816 41 0 31.8218 0 20.5C0 9.17816 9.17816 0 20.5 0C31.8218 0 41 9.17816 41 20.5Z" fill="white"/>
<path d="M19.344 15.244H13.312V12.488H28.782V15.244H22.724V31H19.344V15.244Z" fill="#5B9BF3"/>
</svg>
