<?xml version="1.0" encoding="iso-8859-1"?>
<!-- Uploaded to: SVG Repo, www.svgrepo.com, Generator: SVG Repo Mixer Tools -->
<!DOCTYPE svg PUBLIC "-//W3C//DTD SVG 1.1//EN" "http://www.w3.org/Graphics/SVG/1.1/DTD/svg11.dtd">
<svg fill="#000000" height="800px" width="800px" version="1.1" id="Capa_1" xmlns="http://www.w3.org/2000/svg" xmlns:xlink="http://www.w3.org/1999/xlink" 
	 viewBox="0 0 186.234 186.234" xml:space="preserve">
<g>
	<path d="M147.428,55.729c-10.07-9.086-21.85-15.805-34.604-19.833c0.57-0.93,1.025-1.953,1.323-3.06
		c1.678-6.221-2.004-12.624-8.225-14.303c-1.969-0.531-3.956-0.522-5.806-0.069V7c0-3.866-3.134-7-7-7s-7,3.134-7,7v11.474
		c-6.134-1.501-12.377,2.154-14.031,8.284c-0.87,3.226-0.29,6.496,1.33,9.136c-12.757,4.027-24.539,10.747-34.611,19.835
		C10.446,81.315,0.403,121.101,13.218,157.088c1.006,2.827,3.676,4.653,6.59,4.652c0.404,0,0.813-0.035,1.223-0.107
		c12.369-2.186,24.127-6.798,34.67-13.521c3.817,8.057,8.71,16.686,14.62,25.758c5.044,7.742,13.566,12.365,22.795,12.365
		c0,0,0,0,0,0c9.229,0,17.751-4.623,22.796-12.365c5.909-9.071,10.802-17.701,14.619-25.757
		c10.544,6.723,22.302,11.336,34.671,13.521c0.409,0.073,0.818,0.107,1.222,0.107c2.914,0,5.584-1.826,6.591-4.652
		C185.831,121.101,175.788,81.315,147.428,55.729z M48.183,66.123c10.767-9.715,23.823-16.254,37.937-19.055l0,19.573
		c-0.001,0.051-0.007,0.101-0.006,0.152c0.197,23.228-9.648,45.535-27.012,61.201c-9.916,8.946-21.754,15.294-34.529,18.562
		C16.64,117.534,25.571,86.525,48.183,66.123z M104.182,166.227c-2.487,3.818-6.521,6.007-11.066,6.007
		c-4.545,0-8.578-2.189-11.065-6.007c-6.221-9.55-11.207-18.502-14.886-26.693c0.439-0.382,0.883-0.756,1.315-1.146
		c10.89-9.825,19.251-21.887,24.637-35.153c5.385,13.266,13.746,25.327,24.636,35.153c0.433,0.39,0.877,0.764,1.316,1.146
		C115.389,147.725,110.403,156.677,104.182,166.227z M161.661,146.556c-12.774-3.267-24.613-9.615-34.529-18.562
		c-17.363-15.667-27.209-37.973-27.012-61.26V47.061c14.113,2.8,27.164,9.349,37.93,19.062
		C160.663,86.525,169.593,117.534,161.661,146.556z"/>
</g>
</svg>